<svg xmlns="http://www.w3.org/2000/svg" viewBox="0 0 1920 1080"><defs><style>.cls-1{fill:#fff;}.cls-2{fill:#bfbf45;}</style></defs><g id="logo"><path class="cls-1" d="M1154,1034.56c7.33-.46,9-1.56,12.1-5l4.3,4.49H1183l6.41-39.94c-2.2-.19-4.31-.28-6.23-.28-6.05,0-11.91.09-16.4,2.29l-1.74,11h4.49l-1.1,6.87s-1.56,4.21-7.24,4.21c-8.06,0-8.15-2.84-5.77-17.86,1.16-7.27,2.26-12,4.06-14.89l-9.51-4.34,18.36.17h.1a138.11,138.11,0,0,1,22,2l2.2-13.47c-11.82-3.39-12.74-3.58-27.31-3.58-18.23,0-23.45,8.89-27.67,30.24C1133.84,1015.59,1134.85,1035.75,1154,1034.56Z"/><path class="cls-1" d="M1409.19,1034.61c13.56.27,18.6-.55,24.65-2.94l2.2-13.83s-9.16.82-18.78.82c-9.26,0-10.45-3.11-8.07-18.14,1.16-7.37,2.36-11.77,3.86-14.4l-9-4.1,20.07.19h0a125.07,125.07,0,0,1,17.3,1.55l2.2-13.84c-7.42-2.93-10.44-3.66-23.64-3.66-18.23,0-25.28,9.89-28.58,31.24C1387.94,1020,1392.33,1034.33,1409.19,1034.61Z"/><polygon class="cls-1" points="1049.77 966.92 1031.99 966.92 1029.62 981.96 1047.39 981.96 1049.77 966.92"/><path class="cls-1" d="M1047.38,1018.05c-2.65,0-5.68.09-4.94-4.77l3.48-22-16.58-7.57-5.68,36c-1.65,10.35,4.58,14.29,12.91,14.29h27.12l2.57-15.94Z"/><polygon class="cls-1" points="1364.7 966.92 1362.32 981.96 1380.09 981.96 1382.47 966.92 1364.7 966.92"/><polygon class="cls-1" points="1354.07 1033.99 1371.85 1033.99 1378.58 991.51 1362 983.95 1354.07 1033.99"/><polygon class="cls-1" points="1208.18 966.92 1205.8 981.96 1223.57 981.96 1225.96 966.92 1208.18 966.92"/><polygon class="cls-1" points="1197.55 1033.99 1215.33 1033.99 1222.06 991.51 1205.48 983.95 1197.55 1033.99"/><polygon class="cls-1" points="1298.31 966.92 1295.74 982.87 1312.6 982.87 1304.54 1033.99 1322.31 1033.99 1329.45 988.72 1316.64 982.87 1330.37 982.87 1330.37 982.87 1347.78 982.87 1350.34 966.92 1298.31 966.92"/><path class="cls-1" d="M1095.16,1034.4c16.49,0,28.4-1.56,33.07-31.15,5-31.42-6.5-36.74-22.35-36.74-12.14,0-22.67.47-29,16.06h23.89c.81-.08,1.69-.12,2.65-.12,8.34,0,9.53,2.94,7.06,18.51-2.29,14.2-5,17.5-12.83,17.5-9,0-9.35-3.48-7.15-17.5.56-3.56,1.11-6.41,1.7-8.75L1076,984.83a80,80,0,0,0-3.3,13.84C1067.85,1029.18,1078.66,1034.4,1095.16,1034.4Z"/><path class="cls-1" d="M1474.61,966.32c-10.26.28-19.33,2.29-21.16,15.58l0,.37H1476l0,.05c.74,0,1.56-.06,2.52-.06,6,0,15.21.28,21,.92l2.2-13.83C1495.23,966.87,1488.17,966,1474.61,966.32Z"/><path class="cls-1" d="M1482.49,991.7h-6.78c-2.75,0-4.08-.48-4.65-1.4l-17.82-6.84-.8,6.13c-.55,4.31-1.28,19.89,16.22,19.89h6.41c4,0,4.67,1.37,4.21,4l-.18,1.46c-.46,2.75-2.1,3.76-6,3.76-8.52,0-19.06-.64-22.64-1l-2.19,13.84c8.7,3.11,12.73,3.11,26,3.11,9.07,0,22.08-.55,22.72-17.77l.18-5.78C1498.07,1003.79,1496.42,991.7,1482.49,991.7Z"/><path class="cls-1" d="M1259,966.32c-10.26.28-19.33,2.29-21.16,15.58l0,.37h22.56l0,.05c.74,0,1.55-.06,2.52-.06,6.05,0,15.21.28,21,.92l2.2-13.83C1279.59,966.87,1272.54,966,1259,966.32Z"/><path class="cls-1" d="M1266.86,991.7h-6.78c-2.75,0-4.09-.48-4.65-1.4l-17.82-6.84-.8,6.13c-.55,4.31-1.28,19.89,16.21,19.89h6.42c4,0,4.67,1.37,4.21,4l-.18,1.46c-.46,2.75-2.11,3.76-6,3.76-8.52,0-19.05-.64-22.63-1l-2.2,13.84c8.71,3.11,12.74,3.11,26,3.11,9.07,0,22.08-.55,22.72-17.77l.19-5.78C1282.43,1003.79,1280.78,991.7,1266.86,991.7Z"/><path class="cls-2" d="M677.87,351.81a92.77,92.77,0,0,1-2.18,9.37c0,4-5.67,29.91-9.43,29.48a6.06,6.06,0,0,1-2.7-1.3c-10-7.18-20.65-16.88-24.85-28.77-3.67-10.41-.48-21.7-2.43-32.36-1.83-10-6.65-19.41-14.83-25.6C608.14,292.54,592.8,286.58,578.1,279a4.41,4.41,0,0,0-4-.28c.39,6.51,8.72,13.18,13.25,17.12,1.8,1.57,22.36,14.15,23.19,12.65-4.3,7.74-38.64,3.24-45.2,2.58a40,40,0,0,1-11.23-2.38C535.64,301,530.87,275,519.86,260.3c-10.54-14.05-26.55-18.21-43.52-18.58-3.22-.07-6.75.31-9.74-.88,5.51-13,31.49-9,41.32-5.12,14.35,5.6,27,16,37,27.58,2.77,3.21,5.33,6.62,8.69,9.66-3.42-13.11-7.22-26-7.72-39.87,13.48,18.1,34.75,23.2,53.08,33.14,15.15,8.22,30,17,40.62,31.3C654.12,317.1,649,342.36,660,363c5.42,10.1,14.08-11.21,18-12.46C678,351,677.92,351.38,677.87,351.81Z"/><path class="cls-2" d="M337.5,233.7c2.35-1.78,3-6.89,4.21-9.54a77.89,77.89,0,0,1,7.84-13.1c29.19-40.57,83.17-49.27,129.76-45.73q29.58,2.23,59,6.36c18.77,2.62,36.17,7.08,55.07,3.21a2.36,2.36,0,0,1,2.63.68c-1.54,4.71-7.79,7.58-10.6,11.91-3.42,5.28-2.74,4.41,3,5.12a90.35,90.35,0,0,0,20.79,0c31.05-3.6,56.34-23.47,86.72-29.13,31.72-5.92,64.27-.69,95.2,7.05,24.48,6.12,47.38,14.28,72.41,17.28,10.82,1.3,20.71,1.06,31.48.42,8-.5,16.69-2,24.61-1.23-3.08,6.75-17.14,11.6-23.81,14.43-7.87,3.33-17.52,6-22.12,14-1,1.65-1.07,4,.28,5.31a7.35,7.35,0,0,0,2.7,1.45c14,5.48,22,19.25,36.77,23.82,17.66,5.48,36.4,2.46,54.53,2.53,20.31.08,40.63,0,60.94,0l.21.64c-.14-.43-50.16,18.94-54.41,20.95-7.65,3.59-12.93,11.32-6.32,18.92,4,4.67,8.31,9.27,13.67,12.49,18.06,10.82,29,32.08,50.81,36.08,11.56,2.12,23.43.59,35.08.35,20.14-.43,40.81-2.14,61.19-2.49a118.26,118.26,0,0,1-62,39.09c-21.87,5.47-44.76,4.51-67.31,4.56-1.74,0-3.68.09-4.92,1.32-1.58,1.56-1.25,4.17-.56,6.28,4.71,14.36,20.21,22.34,35,25.32,25.13,5.05,51.09,0,76.71.69s54,9.29,65.87,32c-26.38-6.81-54.47,2-78.28,15.24s-45,30.85-69,43.8c-28.8,15.56-61.78,24.13-94.42,21.65-17.9-1.36-36.17-6.33-49.77-18-24.37-21-31.07-60.6-60.63-73.25-13.79-5.9-29.93-4.36-43.64-10.44-16.92-7.5-26.81-24.82-36.89-40.34s-23.62-31.5-42-33.19c15.33-8.18,34.36,2,45.82,15s19.59,29.46,33.92,39.28c23.7,16.22,58.71,10.58,79.71,30.16,15.7,14.63,18.44,39,32.65,55,16.2,18.3,43.85,21.82,67.89,17.43,51-9.34,91.65-46.73,137.81-70.39-18,.9-36.15,1.75-53.93-1.15S1005.7,425.71,993,413c-13.78-13.77-20.74-33.09-23.75-52.33a207.86,207.86,0,0,0,69.07,2.71c-22.74-8.55-41.93-17-55.61-38.24-10.2-15.83-26.89-25.32-44.51-30.8-8.35-2.59-17.68-3.09-26.28-4.46-6.17-1-22.53-1.22-26.26-6.42,3.81-1.35,52.24-8,51.65-9-2.22-3.76-6-4.71-9.16-5.71-25.28-8.17-47.54-24.49-74.25-26.83-11.89-1-24-1-35.56-3.87-4.9-1.19-8.14-4.57-4-8.63,3.5-3.44,11.88-2.66,16.27-3.59,11.64-2.45,28-9.47,34.14-20.3-13.51-4.73-31.75-4-46-4.66-4.59-.21-9.19-.29-13.76-.82-14.71-1.69-27.3-10-40.4-16.25-15.09-7.15-31.52-7.48-47.79-4.29-19.54,3.84-38,12-57.11,17.59-18.48,5.37-37.4,8.92-56.72,8.07q-21.26-.95-42.41-3.15l8-10.86c-36.06-11.94-75.38-17.59-113.26-13.75-38.21,3.86-75.94,18.29-104.27,44.23C346.56,225.67,342.33,230,337.5,233.7Z"/><path class="cls-2" d="M257.43,297.08c2.87-.16,5.75-.31,8.61-.49,3.58-.23,7.89-1,9.16-4.37,1-2.5-.31-5.25-1.54-7.63-11.38-21.89-24-42.88-26.29-68-2.07-23.13,3.27-47,15.87-66.63,1-1.53,2.47-3.23,4.24-2.82A4.59,4.59,0,0,1,269.8,149c14.87,18.79,29.86,37.79,40.12,59.45,6.82,14.4,11.25,30.69,6.45,46.41-1.67,5.47-6.91,9.75-9.51,2.36l-16.49-46.87c-4.48-12.71-9.24-25.9-18.83-35.37-6.74,17-7,36.13-2.52,53.83s13.55,34,24.76,48.43c4.85,6.25,10.73,14,5.49,21.67s-12.49,11.7-21.6,12.54c-3.81.36-7.67.24-11.81,1.26,12.51,5,28.1,11,41.56,6.37,2.62-.9,5.12-2.23,7.85-2.63,18.9-2.78-1.59,21.78-6,25.41C291,356.8,270.41,368.81,254.14,386c-7.35,7.77-13.52,17.77-14.5,28.63-.25,2.79,2.44,26.48,5,24.32a2.83,2.83,0,0,0,.74-1.62c2.36-10.48,8.2-19.95,15.53-27.8,9.86-10.55,22.24-18.51,34.69-25.66,11-6.29,22.32-11.11,31.06-20.52,9.18-9.86,15.46-22,22.55-33.32.86-1.38,1.87-2.85,3.44-3.3,7-2-.83,20-1.76,22.67-3.44,10-7.59,19.68-11.11,29.63-6.22,17.58-12.71,39.06-3.07,56.66,4-8.43,8.1-15.62,11.39-23.15,10.94-25,29.19-51.94,19.34-80.41-3-8.72-8.61-16.49-10.6-25.49-2.59-11.67,1.21-23.74,5.47-34.91,5.23-13.7,11.23-27.09,17.61-40.28,2.81-5.79,6.64-12.26,13-13.1,6.6-.86,12.09,4.82,16.06,10.18,9,12.1,16.56,25.43,20.39,40,4.8,18.22,3.46,37.66-1.37,55.88s-13,35.35-22,51.94c-1.86,3.46-5.09,7.47-8.81,6.21-4.3-1.46-3.53-7.74-1.76-11.92,11-25.94,28.34-51.38,25.67-79.44C419.69,276,412.37,262,405.2,248.5c-.82-1.54-2.32-3.35-3.92-2.65a3.53,3.53,0,0,0-1.29,1.2c-10.07,13.3-19.57,27.93-21.57,44.49-2.93,24.32,10.79,48.23,8.54,72.63-1.5,16.26-9.91,30.58-18.09,44.32-4.32,7.26-8.78,14.46-12.43,22.1-3.38,7.05-5.16,14.2-11.19,19.61-12.27,11-29.66-.38-27.54-15.42A395,395,0,0,0,321,395c.17-4.31-1.34-5.34-4.9-4-17.06,6.19-33.72,15.09-45.33,29.4-13.15,16.22-19.26,38.6-27,57.68.31-.76-9.73-13.07-10.85-15A95.7,95.7,0,0,1,223.86,443c-15.14-48,22.47-85.91,64.46-101.52-10.23-5.71-21.3-9.3-33.08-9.62-7.67-.2-10.34,8.11-14.29,13.55a230.67,230.67,0,0,1-17.67,21.42c-10.29,11-30.24,34.77-45.85,33.69-5.57-.39-5.9-4.45-3.46-8.88,13.56-24.65,35.9-41.74,57.84-58.43,5.4-4.11-4.1-6.64-6.85-7.71-8.77-3.41-17.49-7-26.2-10.58,8.59-8.21,20.14-12.74,31.8-15C239.41,298.13,248.42,297.58,257.43,297.08Z"/><path class="cls-2" d="M202.61,799.56c-3.58,5.76-7.69,11.16-13,15.31-12.06,9.4-29.74,11.92-44.44,8.65-8.68-1.93-16.68-6.53-22-13.72-.82-1.11-1.59-2.61-.88-3.78,2.6-4.27,17.11,2.39,20.48,3.18,8.61,2,16.7,2.48,24.83-1.73,15.53-8,22.65-26.89,30.15-41.56,9.65-18.89,20.4-38.28,36.23-52.77,19.94-18.26,47-21.89,62.46-45.59,7.94-12.14,22.24-16.9,35-22.09,15.85-6.43,31.67-13,46.72-21.16,21.32-11.61,35-26.47,46.65-47.74,4.09-7.46,7.78-15.12,11.68-22.68,6.43-12.44,12.47-24.22,20-36.17-1.12,21.84-4.71,43.77-13.22,63.92-9.62,22.75-26.19,44.49-49.52,54.13-13.42,5.55-26.79,11.27-40.5,16.1-7.08,2.5-14.24,4.77-21.51,6.66-12.19,3.16-18.77,3.7-27.35,13.88a270.33,270.33,0,0,1-57.27,51.11c-21.91,14.51-28.29,47.09-40.4,69C205.39,794.89,204.05,797.25,202.61,799.56Z"/><path class="cls-2" d="M107.47,790.39c-17.15,5.32-36.8-4.74-45.78-20.4-9.17-16-8.75-36.09-3.08-53.64,9-27.74,28.32-52.9,44-77.14,4.47-6.9,9-13.82,12.83-21.13,14.95-28.8,28-59.15,41.44-88.7,9.85-21.61,19.92-44.38,18.24-68.08-.61-8.67-2.8-17.17-3.29-25.85s1-18,6.69-24.52c-.61.71,8.09,25.06,8.63,28.15a123.22,123.22,0,0,1,1.39,32.09c-2,22.8-11.55,41.5-21.68,61.58-23.5,46.58-34.8,98.63-64.71,141.92-17.76,25.72-54.1,69.28-22.3,98.85,8.12,7.55,18.5,12.14,28.69,16.5Z"/><path class="cls-2" d="M200.8,687.78l6.06-14.37c3.79-4.66,4-11.06,7.77-15.76q4.13-9.92,8.24-19.82c6.1-10.81,9.46-22.79,14.66-34,3-6.54,8.51-6.39,8.9,2.22.16,3.39-1.13,6.67-2.4,9.82-9,22.32-18,44.77-30.88,65.08-3.7,5.84-10.12,17.6-16.89,19.44C195.5,696.27,198.48,691.34,200.8,687.78Z"/><path class="cls-2" d="M292.87,495c-1.27,3.58-3.14,7.9-.44,11.27,10.37,13,31.72-2.05,44.33-3-.32,0-5,8.93-5.84,9.92a36.8,36.8,0,0,1-10.82,9A32.79,32.79,0,0,1,293,523.69c-4.22-1.56-8.38-4.16-10.21-8.27-2-4.4-.81-9.67,1.67-13.8,2-3.35,5.15-7,8.88-8C293.19,494.05,293,494.51,292.87,495Z"/><path class="cls-2" d="M112.26,768.71c24.75,17.46,49.36,14.73,74,.49-.88,10-12.31,21.13-25.07,23.81C146.51,796.09,122.15,789.81,112.26,768.71Z"/><path class="cls-2" d="M282.27,645c-7.58,16.14-24.78,39.53-45.12,37.56,6.07-9.82,15.85-16.25,24.23-23.89,1.64-1.5,21.49-19.52,22-16.6C283.67,643.49,282.81,643.8,282.27,645Z"/><path class="cls-2" d="M368.27,489.32c-.26.37-1.2.51-3.19.25-11.61-1.53-23.26-3.36-35-3.36a95.31,95.31,0,0,0-18.62,1.72c-1.67.33-7.5,2.88-8.83,2.43-9.17-3.1,17.5-11.71,21-11.91a92,92,0,0,1,27.07,2.47c4.21,1,9.13,2.1,13,4.19C365.33,486,368.94,488.4,368.27,489.32Z"/><path class="cls-1" d="M925.69,542.39c-32.67,0-69.73,5.88-78.17,58.73l-1.13,7.11h87.1c1.12-.09,2.3-.14,3.57-.14h90.65l9.55-59.82C995.05,542.39,925.69,542.39,925.69,542.39Z"/><path class="cls-1" d="M899.26,727.36l2.94-17.62L970,706l33.17-58.66-90.28-4L845.49,614,824.4,747.54c-8.81,56.15,34.86,65.33,62,64.6,0,0,71.2-1.1,110.09-6.24l9.55-59.46h-87C908.43,746.44,896,746.81,899.26,727.36Z"/><polygon class="cls-1" points="1176.2 812.17 1247.39 812.17 1256.65 753.35 1190.32 723.08 1176.2 812.17"/><polygon class="cls-1" points="1352.36 543.53 1335.47 650.33 1273.09 650.33 1289.97 543.53 1218.77 543.53 1191.74 714.14 1274.12 714.14 1274.1 714.19 1325.2 714.19 1309.79 812.17 1380.98 812.17 1423.55 543.53 1352.36 543.53"/><polygon class="cls-1" points="1105.92 541.97 1096.41 602.17 1167.56 602.17 1177.11 541.97 1105.92 541.97"/><path class="cls-1" d="M1079.49,709.32c-4.4,28.25-7,35.6-45.51,35.6l-8.8,56.51c17.24,12.48,69.36,15.05,90.64,2.57,20.19-11.75,25.7-36.7,28.27-53.94l17.42-109.78L1095.17,610Z"/><polygon class="cls-1" points="1501.73 765.2 1570.72 765.2 1578.43 812.17 1651.46 812.17 1612.56 543.53 1528.52 543.53 1486.49 632.71 1557.51 632.71 1565.95 704.65 1527.41 704.65 1541.62 670.7 1480.99 644.37 1401.9 812.17 1480.81 812.17 1501.73 765.2"/><polygon class="cls-1" points="1657.01 543.53 1646.73 607.39 1714.26 607.39 1681.96 812.17 1753.16 812.17 1781.76 630.84 1730.45 607.42 1785.45 607.42 1785.46 607.39 1855.18 607.39 1865.46 543.53 1657.01 543.53"/><polygon class="cls-1" points="552.36 543.53 477.5 543.53 485.44 607.42 557.77 607.42 552.36 543.53"/><polygon class="cls-1" points="762.29 543.53 697.69 721.16 681.55 602.99 705.03 543.53 630.17 543.53 567.41 721.16 561 645.53 485.92 611.26 510.89 812.17 599.34 812.17 633.1 723.73 645.95 812.17 728.89 812.17 837.15 543.53 762.29 543.53"/><path class="cls-1" d="M1390.61,932.78c8.9-.56,10.9-1.89,14.68-6l5.23,5.45h15.24l7.79-48.5c-2.67-.22-5.23-.33-7.57-.33-7.34,0-14.46.11-19.91,2.78L1404,899.52h5.45l-1.33,8.34s-1.9,5.12-8.79,5.12c-9.79,0-9.9-3.45-7-21.7,1.41-8.82,2.74-14.52,4.93-18.06l-11.55-5.28,22.3.21h.12a168.21,168.21,0,0,1,26.69,2.44l2.67-16.35c-14.35-4.11-15.46-4.34-33.15-4.34-22.13,0-28.48,10.79-33.59,36.71C1366.14,909.75,1367.36,934.22,1390.61,932.78Z"/><path class="cls-1" d="M1700.47,932.83c16.46.34,22.58-.66,29.92-3.56l2.67-16.79s-11.12,1-22.8,1c-11.24,0-12.68-3.79-9.79-22,1.4-9,2.86-14.29,4.68-17.49l-10.9-5,24.36.22h0a152.64,152.64,0,0,1,21,1.87l2.67-16.79c-9-3.56-12.68-4.45-28.7-4.45-22.14,0-30.71,12-34.71,37.93C1674.66,915.15,1680,932.5,1700.47,932.83Z"/><polygon class="cls-1" points="1264.06 850.66 1242.48 850.66 1239.59 868.9 1261.17 868.9 1264.06 850.66"/><path class="cls-1" d="M1261.17,912.73c-3.23,0-6.9.11-6-5.78l4.22-26.72L1239.26,871l-6.91,43.69c-2,12.57,5.56,17.36,15.69,17.36H1281l3.11-19.36Z"/><polygon class="cls-1" points="1646.45 850.66 1643.55 868.9 1665.14 868.9 1668.03 850.66 1646.45 850.66"/><polygon class="cls-1" points="1633.54 932.09 1655.12 932.09 1663.3 880.51 1643.17 871.32 1633.54 932.09"/><polygon class="cls-1" points="1456.4 850.66 1453.51 868.9 1475.09 868.9 1477.98 850.66 1456.4 850.66"/><polygon class="cls-1" points="1443.5 932.09 1465.08 932.09 1473.25 880.51 1453.13 871.32 1443.5 932.09"/><polygon class="cls-1" points="1565.83 850.66 1562.71 870.01 1583.18 870.01 1573.39 932.09 1594.97 932.09 1603.64 877.12 1588.09 870.02 1604.76 870.02 1604.77 870.01 1625.9 870.01 1629.02 850.66 1565.83 850.66"/><path class="cls-1" d="M1319.17,932.59c20,0,34.49-1.9,40.16-37.83,6-38.15-7.9-44.61-27.15-44.61-14.73,0-27.52.57-35.22,19.5h29a32,32,0,0,1,3.22-.14c10.12,0,11.57,3.56,8.57,22.47-2.78,17.25-6,21.25-15.58,21.25-10.9,0-11.34-4.23-8.67-21.25.67-4.32,1.34-7.79,2.06-10.62l-19.63-9a96.7,96.7,0,0,0-4,16.8C1286,926.24,1299.15,932.59,1319.17,932.59Z"/><path class="cls-1" d="M1779.9,849.92c-12.46.34-23.47,2.78-25.7,18.92l-.06.45h27.4l0,.06c.9-.05,1.89-.07,3.06-.07,7.35,0,18.47.33,25.48,1.11l2.67-16.79C1804.93,850.59,1796.36,849.48,1779.9,849.92Z"/><path class="cls-1" d="M1789.47,880.74h-8.23c-3.35,0-5-.59-5.65-1.7L1754,870.73l-1,7.45c-.67,5.23-1.56,24.14,19.69,24.14h7.79c4.89,0,5.67,1.67,5.11,4.89l-.22,1.78c-.55,3.34-2.56,4.56-7.34,4.56-10.35,0-23.14-.77-27.48-1.22l-2.67,16.8c10.57,3.78,15.46,3.78,31.6,3.78,11,0,26.8-.67,27.58-21.58l.23-7C1808.38,895.42,1806.38,880.74,1789.47,880.74Z"/><path class="cls-1" d="M1518.08,849.92c-12.46.34-23.47,2.78-25.7,18.92l-.06.45h27.4l0,.06c.91-.05,1.89-.07,3.06-.07,7.35,0,18.47.33,25.48,1.11l2.67-16.79C1543.11,850.59,1534.54,849.48,1518.08,849.92Z"/><path class="cls-1" d="M1527.65,880.74h-8.23c-3.35,0-5-.59-5.65-1.7l-21.63-8.31-1,7.45c-.67,5.23-1.56,24.14,19.69,24.14h7.79c4.89,0,5.67,1.67,5.11,4.89l-.22,1.78c-.55,3.34-2.56,4.56-7.34,4.56-10.34,0-23.14-.77-27.48-1.22l-2.67,16.8c10.57,3.78,15.47,3.78,31.6,3.78,11,0,26.81-.67,27.59-21.58l.22-7C1546.56,895.42,1544.56,880.74,1527.65,880.74Z"/></g></svg>