<?xml version="1.0" encoding="utf-8"?>
<!-- Generator: Adobe Illustrator 19.2.1, SVG Export Plug-In . SVG Version: 6.00 Build 0)  -->
<svg version="1.1" id="layer" xmlns="http://www.w3.org/2000/svg" xmlns:xlink="http://www.w3.org/1999/xlink" x="0px" y="0px"
	 viewBox="0 0 652 652" style="enable-background:new 0 0 652 652;" xml:space="preserve">
<style type="text/css">
	.st0{fill:#fff;}
	.st1{fill:none;}
	.st2{clip-path:url(#SVGID_2_);}
	.st3{fill:#273777;}
	.st4{fill:#A9AAAC;}
	.st5{fill:#CCD433;}
	.st6{fill:#71B545;}
	.st7{fill:#26B3BA;}
	.st8{fill:#59B15A;}
	.st9{fill:#fff;}
	.st10{fill:#1D3A6C;}
	.st11{fill:#fff;}
</style>
<g id="logo" transform="translate(0 -0.345)">
	<path id="Fill_1" class="st0" d="M392.7,94.5h10v-10h-10V94.5z"/>
	<path id="Fill_1-2" class="st0" d="M407.8,94.5h10v-10h-10V94.5z"/>
	<path id="Fill_2" class="st0" d="M568.3,194.9h10v-10h-10V194.9z"/>
	<path id="Fill_2-2" class="st0" d="M548.2,194.9h10v-10h-10V194.9z"/>
	<g id="Group_153">
		<path id="Fill_3" class="st0" d="M667.2,175.5c2-0.9,3.8-2.4,5-4.2c1.3-2,2.3-4.3,2.7-6.7c0.6-2.9,0.8-5.9,0.8-8.9V97h-8.5v58.7
			c0,2-0.1,4-0.4,6c-0.2,1.4-0.6,2.7-1.3,4c-0.6,1-1.4,1.7-2.4,2.2c-1.3,0.5-2.6,0.7-4,0.7c-0.7,0-1.3,0-2-0.1
			c-0.8-0.1-1.6-0.3-2.3-0.5l-2.2,8.1c2.2,0.6,4.5,0.9,6.9,0.9C662.2,177.1,664.8,176.6,667.2,175.5"/>
		<g id="Group_7" transform="translate(133.914)">
			<path id="Clip_6-2" class="st1" d="M485.8,71.2h18.5v17.4h-18.5V71.2z"/>
			<g>
				<defs>
					<rect id="SVGID_1_" x="485.8" y="71.2" width="18.5" height="17.4"/>
				</defs>
				<clipPath id="SVGID_2_">
					<use xlink:href="#SVGID_1_"  style="overflow:visible;"/>
				</clipPath>
				<g id="Group_7-2" class="st2">
					<path id="Fill_5" class="st0" d="M504.3,82.1h-11.6v-1.9c-0.1-0.9,0.2-1.7,0.7-2.5c0.7-0.6,1.7-0.9,2.6-0.7h5.8v-5.8h-6
						c-2.7-0.2-5.4,0.7-7.5,2.5c-1.9,2.2-2.8,5.1-2.6,8.1v6.9h18.5V82.1z"/>
				</g>
			</g>
		</g>
		<g>
			<g>
				<path id="Fill_11" class="st0" d="M614.6,177c-2.5,0-5.1-0.3-7.5-0.9c-2.9-0.7-5.8-1.6-8.6-2.7l2.6-8.1c2.3,1.1,4.7,1.9,7.1,2.5
					c2.3,0.5,4.7,0.8,7,0.7c3.8,0.2,7.5-0.8,10.7-2.8c2.7-2.3,4.1-5.9,3.8-9.4V148l-2.8,5.9h-2.3c-4.5,0-9-0.5-13.4-1.6
					c-4-1-7.8-2.7-11.1-5c-3.2-2.3-5.8-5.2-7.6-8.7c-2-4-2.9-8.3-2.8-12.7c0-4,0.8-7.9,2.5-11.5c1.7-3.5,4.1-6.6,7.2-9.1
					c3.3-2.7,7-4.7,11-6c4.6-1.5,9.4-2.3,14.3-2.2h13.5v58.5c0.3,5.8-1.7,11.4-5.6,15.7C627.6,175.5,621.2,177.6,614.6,177z
					 M620.9,105.5c-2.8,0-5.6,0.5-8.3,1.5c-2.7,0.9-5.2,2.3-7.3,4.1c-2.1,1.8-3.9,4-5.2,6.5c-1.3,2.6-2,5.4-2,8.3
					c-0.1,2.9,0.6,5.8,1.8,8.4c1.2,2.4,2.9,4.5,5,6.2c2.2,1.7,4.7,3,7.3,3.8c2.9,0.9,5.9,1.3,8.9,1.3h8.6v-37.7l4.8-2.4H620.9z"/>
				<path id="Fill_12" class="st0" d="M575.9,176.1h-154c-2.6,0.1-5.2-0.4-7.7-1.5c-2-0.9-3.8-2.4-5-4.2c-0.1-0.2-0.3-0.4-0.4-0.7
					l-0.1-0.2v6.3h-17.6c-10.6,0.2-20.9-4.1-28.3-11.7c-7-7.4-10.9-17.3-10.8-27.5v-0.2c-0.1-10.3,3.8-20.1,10.9-27.6
					c7.4-7.7,17.7-12,28.4-11.8h22.8v57.9c0,2,0.1,4,0.4,6c0.2,1.4,0.6,2.7,1.3,4c0.6,1,1.4,1.7,2.4,2.2c1.3,0.5,2.6,0.7,4,0.7
					h145.3V97h8.5L575.9,176.1L575.9,176.1z M391.1,105c-16.6,0-30,13.3-30.1,29.9c0,0.4,0,0.9,0,1.3v0.2
					c-0.5,16.9,12.8,31,29.6,31.5c0.2,0,0.4,0,0.6,0h16.5c-0.6-1.3-1-2.7-1.3-4.2c-0.6-2.9-0.8-5.9-0.8-8.9v-47.3l5.2-2.6L391.1,105
					z"/>
				<path id="Fill_13" class="st0" d="M309.8,155l3.7,9.7l-53.7-67.8h-8.4v78.8h8.7v-59.4l-5-11.5l56.2,70.8h7.1V96.9h-8.7V155z"/>
				<path id="Fill_14" class="st0" d="M430.1,301.5l48.7-46.2v-31.7H348.7v36.1h66.7l24.8-15.8l-61.8,61.7l6.6,26.8h17.6
					c23.7,0,37.7,8.7,37.7,24.3v0.5c0,14.2-11.3,23.2-27.2,23.2c-19.5,0-33.3-8.2-46.5-22.9l-29.2,27.6
					c16.5,19.4,40.5,33.1,75.1,33.1c42.9,0,69.4-26.5,69.4-62.6v-0.5C481.9,319.5,456.3,305.9,430.1,301.5"/>
				<path id="Fill_15" class="st0" d="M196.2,177c-11,0.2-21.6-4.2-29.2-12.1c-7.2-7.7-11.2-17.9-11.1-28.4v-0.2
					c-0.1-10.6,3.9-20.8,11.2-28.5c7.7-7.9,18.3-12.4,29.3-12.2c11-0.2,21.6,4.2,29.2,12.1c7.2,7.7,11.2,17.8,11.1,28.4v0.2
					c0.1,10.6-3.9,20.8-11.2,28.5C217.9,172.7,207.3,177.2,196.2,177z M196.2,103.8c-17.1-0.1-31,13.8-31.1,30.9c0,0.5,0,0.9,0,1.4
					v0.2c-0.5,17.4,13.2,32,30.6,32.5c0.2,0,0.4,0,0.7,0c17.1,0,31-13.8,31.1-30.9c0-0.5,0-0.9,0-1.4v-0.2
					c0.5-17.4-13.2-32-30.6-32.5C196.7,103.8,196.5,103.8,196.2,103.8L196.2,103.8z"/>
				<path id="Fill_16" class="st0" d="M594.9,418.2c-27.3,0.4-53.6-9.9-73.3-28.8c-18.6-18.3-29-43.4-28.8-69.6v-0.6
					c-0.2-26.2,10.3-51.4,29-69.8c19.7-19,46.2-29.5,73.6-29.1c27.3-0.4,53.6,9.9,73.3,28.8c18.6,18.3,29,43.4,28.8,69.5v0.5
					c0.2,26.2-10.3,51.4-29,69.8C648.8,408.1,622.3,418.6,594.9,418.2z M594.9,259.2c-32.9,0-57.8,25.6-57.8,59.6v0.5
					c-0.8,32.4,24.7,59.3,57.1,60.1c0.4,0,0.8,0,1.2,0c32.9,0,57.8-25.6,57.8-59.6v-0.6c0.8-32.4-24.7-59.3-57.1-60.1
					C595.7,259.2,595.3,259.2,594.9,259.2L594.9,259.2z"/>
				<path id="Fill_17" class="st0" d="M131.5,175.7h9V96.9h-9V175.7z"/>
				<path id="Fill_18" class="st0" d="M-12.3,393l8.2-6.3l42.1-32.3c34.1-26.2,50.6-42.1,50.6-74v-0.5c0-35.8-26.4-59-66.3-59
					c-34.4,0-52.8,13.9-71.8,39.6l29.7,23.8c14.3-17.5,24.5-25.7,39.4-25.7c15.1,0,25.9,8.7,25.9,24.9c0,15.8-9.4,26.2-33.3,45.9
					l-64.1,52.2v33.3H90.5v-36.3H17L-12.3,393z"/>
				<path id="Fill_19" class="st0" d="M-11.8,176.2l34.1-79.3h-9.6l-27,64.6l0.9,8.7l-2.2-5.4L-39,108.6l-4.9-11.7h-10l34.1,79.3
					H-11.8z"/>
				<path id="Fill_20" class="st0" d="M34.5,175.7h9V96.9h-9V175.7z"/>
				<path id="Fill_21" class="st0" d="M90.9,132c-17.5-3.7-21.5-7.9-21.5-15.3v-0.2c0-7.1,6.6-12.7,16.9-12.7c8.4,0,16.5,3,22.9,8.5
					l5.2-6.8c-7.8-6.5-17.7-10-27.9-9.7c-15.1,0-26.1,9.1-26.1,21.5v0.2c0,12.9,8.4,18.8,26.6,22.7c16.7,3.5,20.6,7.7,20.6,15v0.2
					c0,7.8-7,13.4-17.7,13.4c-10.2,0.1-20-3.9-27.2-11.1l-5.5,6.5c8.8,8.2,20.4,12.7,32.4,12.6c15.8,0,27.1-8.8,27.1-22.3v-0.2
					C116.7,142.3,108.6,135.8,90.9,132"/>
				<path id="Fill_22" class="st0" d="M-14.7,515.3h5v-4.9h-5V515.3z"/>
				<path id="Fill_23" class="st0" d="M319.5,504.7h-54.8c-2.6,0-5.1-0.3-7.6-1c-2.3-0.6-4.4-1.6-6.3-2.9c-1.8-1.3-3.3-3-4.4-5
					c-1.1-2.3-1.7-4.8-1.6-7.3c0-2.2,0.5-4.5,1.4-6.5c0.9-2,2.3-3.8,4-5.2c1.9-1.5,4-2.7,6.3-3.4c2.7-0.8,5.4-1.3,8.2-1.2h7.6v27.8
					h19.2v-27.8h4.8v27.8h18.3v-27.8h4.8L319.5,504.7L319.5,504.7z M262.7,476.9c-1.6,0-3.3,0.3-4.8,0.8c-1.5,0.5-3,1.3-4.2,2.3
					c-1.2,1-2.2,2.3-3,3.7c-0.8,1.5-1.1,3.1-1.1,4.7c0,1.7,0.3,3.3,1,4.8c0.7,1.4,1.6,2.6,2.8,3.6c1.2,1,2.7,1.8,4.2,2.3
					c1.7,0.5,3.4,0.8,5.1,0.8h4.8v-23H262.7z"/>
				<path id="Fill_24" class="st0" d="M216.1,504.7h4.8v-43.1h-4.8V504.7z"/>
				<path id="Fill_25" class="st0" d="M267.4,466.6h5v-4.9h-5V466.6z"/>
				<path id="Fill_26" class="st0" d="M314.6,515.3h5v-4.9h-5V515.3z"/>
				<path id="Fill_27" class="st0" d="M-6.2,515.3h5v-4.9h-5V515.3z"/>
				<path id="Fill_28" class="st0" d="M54,517.9c-1.5,0-2.9-0.2-4.3-0.5c-1.7-0.4-3.3-0.9-4.9-1.5l1.5-4.6c1.3,0.6,2.7,1.1,4.1,1.4
					c1.3,0.3,2.7,0.4,4,0.4c2.2,0.1,4.3-0.4,6.1-1.6c1.6-1.3,2.4-3.4,2.2-5.4v-1.4h-2.9c-2.6,0-5.2-0.3-7.7-0.9
					c-2.3-0.6-4.4-1.5-6.4-2.9c-1.8-1.3-3.3-3-4.4-5c-1.1-2.3-1.7-4.8-1.6-7.3c0-2.3,0.5-4.5,1.5-6.6c1-2,2.3-3.8,4.1-5.2
					c1.9-1.5,4-2.7,6.3-3.5c2.6-0.9,5.4-1.3,8.2-1.3h7.8v27.8h16.7l-8.5-20.1c1.3-1.1,2.6-2.2,4-3.2c1.4-1,2.9-1.9,4.5-2.6
					c1.5-0.7,3.1-1.3,4.7-1.7c3.1-0.8,6.3-0.8,9.4,0c1.6,0.4,3.2,1,4.7,1.7c1.5,0.8,3,1.6,4.5,2.6c1.4,1,2.8,2,4.1,3.2l-8.5,20.1
					h25.4v-24.8h4.8v24.8h9.4c1,0,2.1-0.1,3.1-0.5c1-0.3,1.8-0.8,2.6-1.4c0.8-0.7,1.4-1.6,1.8-2.5c0.5-1.2,0.7-2.5,0.7-3.8v-16.6
					h4.8v17c0,1.1,0.3,2.3,0.8,3.3c0.5,1,1.2,1.9,2,2.7c0.9,0.8,1.9,1.4,3,1.8c1.2,0.4,2.5,0.7,3.9,0.7c2.5,0.2,5-0.7,6.8-2.5
					c1.6-1.9,2.4-4.2,2.2-6.6v-16.2h4.8v15.5c0,1.5-0.1,3-0.4,4.5c0.9,1.6,2.2,2.8,3.8,3.6c2.1,0.9,4.4,1.3,6.7,1.2h7.9v-38.3h4.8
					v43.1h-14v-0.1c-1.2,0-2.3-0.2-3.5-0.4c-1.2-0.3-2.3-0.7-3.4-1.3c-0.8-0.5-1.6-1.1-2.3-1.8c-0.6-0.6-1.1-1.3-1.5-2
					c-1,2-2.7,3.6-4.7,4.6c-2.3,1.1-4.9,1.6-7.4,1.5c-2.5,0.1-5-0.5-7.2-1.6c-2-1-3.6-2.6-4.8-4.5c-1.1,1.7-2.7,3.1-4.4,4
					c-1.9,1-4.1,1.5-6.3,1.5H67.5v0.9c0.2,3.3-1,6.5-3.2,9C61.5,517.1,57.8,518.3,54,517.9z M93.6,477c-2.1,0-4.2,0.4-6.1,1.1
					c-2.1,0.8-4,2-5.7,3.4l7.6,18.4H98l7.6-18.4c-1.6-1.4-3.5-2.4-5.4-3.2C98,477.4,95.9,477,93.6,477z M57.8,477
					c-1.7,0-3.3,0.3-4.9,0.8c-1.5,0.5-2.9,1.3-4.2,2.4c-1.2,1-2.2,2.3-3,3.7c-0.7,1.5-1.1,3.1-1.1,4.7c0,1.7,0.3,3.3,1,4.8
					c0.7,1.4,1.6,2.6,2.8,3.5c1.3,1,2.7,1.7,4.2,2.2c1.7,0.5,3.4,0.8,5.1,0.7h4.9V477H57.8z"/>
				<path id="Fill_29" class="st0" d="M-31.2,466.6h5v-4.9h-5V466.6z"/>
				<path id="Fill_30" class="st0" d="M457.9,466.6h5v-4.9h-5V466.6z"/>
				<path id="Fill_31" class="st0" d="M415.1,504.7h4.8v-43.1h-4.8V504.7z"/>
				<path id="Fill_32" class="st0" d="M258.9,466.6h5v-4.9h-5V466.6z"/>
				<path id="Fill_33" class="st0" d="M32.1,485.8c0-1.8-0.2-3.6-0.8-5.3c-0.5-1.6-1.2-3-2.3-4.2c-1.2-1.3-2.7-2.4-4.3-3.2
					c-1.9-0.7-3.8-1.1-5.8-1h-3.6v4.8h4.2c1.2,0,2.3,0.3,3.3,0.7c1,0.5,1.9,1.1,2.6,2c0.7,0.8,1.2,1.7,1.4,2.8
					c0.3,1.2,0.4,2.4,0.4,3.6v13.9H4.6v4.8h27.5V485.8z"/>
				<path id="Fill_34" class="st0" d="M670.9,504.7h4.8v-43.1h-4.8V504.7z"/>
				<path id="Fill_35" class="st0" d="M466.4,466.6h5v-4.9h-5V466.6z"/>
				<path id="Fill_36" class="st0" d="M619.2,510.2c-2.4,0-4.8-0.5-7-1.5c-2.1-1-4-2.3-5.6-4h-21.3c-1.6,1.7-3.6,3.1-5.8,4
					c-2.3,1-4.7,1.5-7.2,1.4c-2.4,0-4.8-0.5-7-1.5c-2.1-1-4-2.3-5.6-4h-96c-2.6,0-5.1-0.3-7.6-1c-2.3-0.6-4.4-1.6-6.3-2.9
					c-1.8-1.3-3.3-3-4.4-5c-1.1-2.3-1.7-4.8-1.6-7.3c0-2.2,0.5-4.4,1.4-6.5c0.9-2,2.3-3.8,4-5.2c1.9-1.5,4-2.7,6.3-3.4
					c2.7-0.8,5.4-1.3,8.2-1.2h7.6v27.8h44.7v-7.3c0-1.2-0.1-2.3-0.4-3.5c-0.2-1-0.7-2-1.4-2.8c-0.7-0.8-1.7-1.5-2.7-1.9
					c-1.3-0.5-2.6-0.7-4-0.7H483c-0.6-0.6-1.1-1.4-1.4-2.2c-0.4-0.9-0.6-1.8-0.8-2.7l9.3-17.2h5.3l-9.1,17.3h21.4c2-0.1,4.1,0.3,6,1
					c1.6,0.7,3.1,1.8,4.2,3.1c1.1,1.2,1.9,2.7,2.3,4.2c0.5,1.7,0.7,3.5,0.7,5.3v7.4h15.4v-38.3h4.8v38.3h15.4
					c-0.4-1.1-0.8-2.2-1.1-3.4c-0.3-1.2-0.4-2.4-0.4-3.7c-0.1-7,4-13.4,10.5-16.1c2.1-0.9,4.4-1.4,6.8-1.4c2.4,0,4.8,0.4,7,1.3
					c2.1,0.9,4,2.1,5.6,3.7c1.6,1.6,2.9,3.5,3.7,5.5c0.9,2.2,1.4,4.6,1.4,6.9c0,2.4-0.5,4.9-1.5,7.1h15c-0.4-1.1-0.8-2.2-1.1-3.4
					c-0.3-1.2-0.4-2.4-0.4-3.7c-0.1-7,4-13.4,10.5-16.1c2.1-0.9,4.4-1.4,6.8-1.4c2.4,0,4.8,0.4,7,1.3c2.1,0.9,4,2.1,5.6,3.7
					c1.6,1.6,2.9,3.5,3.7,5.5c0.9,2.2,1.4,4.6,1.4,6.9c0,2.4-0.5,4.9-1.5,7.1H652v-38.3h4.8v43.1h-24.6c-1.6,1.7-3.6,3.1-5.8,4
					C624.2,509.7,621.7,510.2,619.2,510.2z M619.2,480.1c-1.7,0-3.4,0.3-5,1c-1.5,0.6-2.8,1.6-3.9,2.7c-1.1,1.2-2,2.5-2.6,4
					c-0.6,1.6-0.9,3.2-0.9,4.9c0,3.3,1.2,6.5,3.5,8.9c1.1,1.1,2.5,2.1,3.9,2.7c1.6,0.7,3.2,1,4.9,1c1.7,0,3.4-0.3,5-0.9
					c3.1-1.2,5.5-3.6,6.8-6.6c0.7-1.6,1-3.3,1-5c0-1.7-0.3-3.5-1-5.1c-0.6-1.5-1.5-2.9-2.7-4c-1.2-1.1-2.5-2-4-2.6
					C622.7,480.4,621,480.1,619.2,480.1z M572.3,480.1c-3.4,0-6.6,1.3-8.9,3.7c-1.1,1.2-2,2.5-2.6,4c-0.6,1.6-0.9,3.2-0.9,4.9
					c0,1.7,0.3,3.3,0.9,4.9c0.6,1.5,1.5,2.9,2.6,4c1.1,1.1,2.5,2.1,3.9,2.7c1.6,0.7,3.2,1,4.9,1c1.7,0,3.4-0.3,5.1-0.9
					c4.7-1.9,7.8-6.5,7.8-11.6c0-1.7-0.3-3.5-1-5.1c-0.6-1.5-1.5-2.9-2.7-4c-1.2-1.1-2.5-2-4-2.6
					C575.8,480.4,574.1,480.1,572.3,480.1z M461.7,476.9c-1.6,0-3.3,0.3-4.8,0.8c-1.5,0.5-3,1.3-4.2,2.3c-1.2,1-2.2,2.3-3,3.7
					c-0.8,1.5-1.1,3.1-1.1,4.7c0,1.7,0.3,3.3,1,4.8c0.7,1.4,1.6,2.6,2.8,3.6c1.2,1,2.7,1.8,4.2,2.3c1.7,0.5,3.4,0.8,5.1,0.8h4.8v-23
					H461.7z"/>
				<path id="Fill_37" class="st0" d="M-2.2,504.7h-31.7c-2.6,0-5.1-0.3-7.6-1c-2.3-0.6-4.4-1.6-6.3-2.9c-1.8-1.3-3.3-3-4.4-5
					c-1.1-2.3-1.7-4.8-1.6-7.3c0-2.2,0.5-4.5,1.4-6.5c0.9-2,2.3-3.8,4-5.2c1.9-1.5,4-2.7,6.3-3.4c2.7-0.8,5.4-1.3,8.2-1.2h7.6v27.8
					H-7v-27.8h4.8L-2.2,504.7L-2.2,504.7z M-35.8,476.9c-1.6,0-3.3,0.3-4.8,0.8c-1.5,0.5-3,1.3-4.2,2.3c-1.2,1-2.2,2.3-3,3.7
					c-0.8,1.5-1.1,3.1-1.1,4.7c0,1.7,0.3,3.3,1,4.8c0.7,1.4,1.6,2.6,2.8,3.6c1.2,1,2.7,1.8,4.2,2.3c1.7,0.5,3.4,0.8,5.1,0.8h4.8v-23
					H-35.8z"/>
				<path id="Fill_38" class="st0" d="M296.9,515.3h5v-4.9h-5V515.3z"/>
				<path id="Fill_39" class="st0" d="M288.4,515.3h5v-4.9h-5V515.3z"/>
				<path id="Fill_40" class="st0" d="M329.5,517.9c-1.3,0-2.6-0.2-3.9-0.5l1.3-4.6c0.4,0.1,0.9,0.2,1.3,0.3c0.4,0,0.8,0.1,1.1,0.1
					c0.8,0,1.5-0.1,2.3-0.4c0.6-0.3,1.1-0.7,1.4-1.3c0.4-0.7,0.6-1.5,0.7-2.3c0.2-1.1,0.2-2.3,0.2-3.5v-33.6h4.8v27.8h18l-8.5-20.1
					c1.3-1.1,2.6-2.2,4-3.2c1.4-1,2.9-1.9,4.5-2.6c1.5-0.7,3.1-1.3,4.7-1.7c1.5-0.4,3.1-0.6,4.7-0.6c1.6,0,3.1,0.2,4.7,0.6
					c1.6,0.4,3.2,1,4.7,1.7c1.6,0.8,3,1.6,4.5,2.6c1.4,1,2.8,2,4.1,3.2l-8.5,20.1h20.6v-38.3h4.8v43.1h-62.2v1
					c0,1.7-0.1,3.4-0.5,5.1c-0.3,1.4-0.8,2.7-1.5,3.8c-0.7,1.1-1.7,1.9-2.9,2.4C332.5,517.7,331,518,329.5,517.9z M366.2,477
					c-2.1,0-4.2,0.4-6.1,1.1c-2.1,0.8-4,2-5.7,3.4l7.6,18.4h8.6l7.6-18.4c-1.6-1.4-3.5-2.4-5.4-3.2C370.6,477.4,368.4,477,366.2,477
					L366.2,477z"/>
				<path id="Fill_41" class="st0" d="M-39.7,466.6h5v-4.9h-5V466.6z"/>
				<path id="Fill_42" class="st0" d="M-19.1,536.3h-7.5L-43,553.5v-17.2h-6.1v34.3h6.1v-9.9l5.4-5.5l11.8,15.4h7.4l-15-19.6
					L-19.1,536.3z"/>
				<path id="Fill_43" class="st0" d="M-12.9,570.6h6.1v-34.3h-6.1V570.6z"/>
				<path id="Fill_44" class="st0" d="M26.6,560L8.1,536.3H2.5v34.3h6v-24.4l19.1,24.4h5.1v-34.3h-6V560z"/>
				<path id="Fill_45" class="st0" d="M57.7,556.6h8.8v6.4c-2.4,1.7-5.4,2.6-8.3,2.6c-6.3,0.2-11.6-4.9-11.8-11.2c0-0.3,0-0.7,0-1
					v-0.1c-0.3-6.4,4.7-11.8,11.1-12.1c0,0,0,0,0.1,0c3.6-0.1,7.1,1.2,9.7,3.7l3.9-4.5c-3.7-3.2-8.4-4.9-13.3-4.7
					c-9.7-0.1-17.7,7.6-17.8,17.3c0,0.1,0,0.3,0,0.4v0.1c-0.3,9.4,7,17.3,16.4,17.7c0.5,0,1,0,1.5,0c5.3,0,10.4-1.9,14.4-5.4v-14.4
					H57.7V556.6z"/>
				<path id="Fill_46" class="st0" d="M93.7,570.6H80.8v-34.3h12.9c9.5-0.7,17.7,6.5,18.3,15.9c0,0.4,0,0.8,0,1.1v0.1
					c0,9.5-7.7,17.2-17.2,17.2C94.4,570.6,94.1,570.6,93.7,570.6z M86.9,541.8v23.3h6.8c6.2,0.4,11.6-4.3,12-10.5c0-0.3,0-0.7,0-1
					v-0.1c0.2-6.2-4.7-11.5-10.9-11.7c-0.3,0-0.7,0-1,0L86.9,541.8z"/>
				<path id="Fill_47" class="st0" d="M135.7,571.1c-9.6,0.3-17.7-7.2-18-16.8c0-0.3,0-0.5,0-0.8v-0.1c0-4.7,1.8-9.2,5.1-12.5
					c3.5-3.4,8.2-5.3,13-5.2c9.6-0.3,17.7,7.2,18,16.9c0,0.3,0,0.5,0,0.8v0.1c0,4.7-1.8,9.2-5.1,12.5
					C145.3,569.3,140.6,571.2,135.7,571.1z M135.7,541.2c-6.4,0-11.6,5.2-11.6,11.6c0,0.2,0,0.3,0,0.5v0.1c-0.2,6.5,5,12,11.5,12.2
					c0.1,0,0.2,0,0.2,0c6.4,0,11.6-5.2,11.7-11.6c0-0.2,0-0.3,0-0.5v-0.1c0.3-6.5-4.7-11.9-11.2-12.2
					C136.1,541.2,135.9,541.2,135.7,541.2L135.7,541.2z"/>
				<path id="Fill_48" class="st0" d="M178.4,552.5l-10.5-16.2h-6.5v34.3h6v-24.5l10.8,16.1h0.2l10.9-16.2v24.6h6.1v-34.3h-6.5
					L178.4,552.5z"/>
				<path id="Fill_49" class="st0" d="M235.5,571.1c-9.6,0.3-17.7-7.2-18-16.8c0-0.3,0-0.5,0-0.8v-0.1c0-4.7,1.8-9.2,5.1-12.5
					c3.5-3.4,8.2-5.3,13-5.2c9.6-0.3,17.7,7.2,18,16.9c0,0.3,0,0.5,0,0.8v0.1c0,4.7-1.8,9.2-5.1,12.5
					C245.1,569.3,240.4,571.2,235.5,571.1z M235.5,541.2c-6.4,0-11.6,5.2-11.6,11.6c0,0.2,0,0.3,0,0.5v0.1c-0.2,6.5,5,12,11.5,12.2
					c0.1,0,0.2,0,0.2,0c6.4,0,11.6-5.2,11.7-11.6c0-0.2,0-0.3,0-0.5v-0.1c0.3-6.5-4.7-11.9-11.2-12.2
					C235.9,541.2,235.7,541.2,235.5,541.2L235.5,541.2z"/>
				<path id="Fill_50" class="st0" d="M261.2,570.6h6.1v-14h17.4v-5.5h-17.4v-9.4h19.6v-5.5h-25.7V570.6z"/>
				<path id="Fill_51" class="st0" d="M321.7,550.7c-6.6-1.6-8.2-2.7-8.2-5.4v-0.1c0-2.3,2.1-4.1,5.6-4.1c3.4,0.1,6.7,1.4,9.4,3.5
					l3.3-4.5c-3.5-2.9-8-4.4-12.5-4.3c-5.8-0.7-11,3.4-11.7,9.2c0,0.2-0.1,0.5-0.1,0.8v0.1c0,6.3,4.1,8.5,11.5,10.2
					c6.4,1.5,7.8,2.8,7.8,5.2v0.1c0,2.6-2.4,4.3-6.1,4.3c-4.1,0-8-1.6-10.9-4.5l-3.7,4.3c4,3.6,9.1,5.5,14.4,5.5
					c7.3,0,12.3-3.8,12.3-10.2v-0.1C332.8,555,329,552.4,321.7,550.7"/>
				<path id="Fill_52" class="st0" d="M342.4,570.6h-6.2l15.2-34.5h5.6l15.2,34.5h-6.4l-3.5-8.3h-16.3L342.4,570.6L342.4,570.6z
					 M354.1,543.2l-5.9,13.7h11.9L354.1,543.2z"/>
				<path id="Fill_53" class="st0" d="M399.3,556c0,6.3-3.3,9.5-8.7,9.5s-8.7-3.4-8.7-9.8v-19.5h-6.1V556c-0.9,7.4,4.4,14.2,11.9,15
					c0.9,0.1,1.9,0.1,2.9,0c7.6,0.7,14.2-4.9,14.9-12.5c0.1-1,0.1-1.9-0.1-2.9v-19.5h-6.1V556z"/>
				<path id="Fill_54" class="st0" d="M427.1,570.6h-12.9v-34.3h12.9c9.5-0.7,17.6,6.5,18.3,15.9c0,0.4,0,0.8,0,1.1v0.1
					c0,9.5-7.7,17.2-17.2,17.2C427.8,570.6,427.5,570.6,427.1,570.6z M420.3,541.8v23.3h6.8c6.2,0.4,11.6-4.3,12-10.5
					c0-0.3,0-0.7,0-1v-0.1c0.2-6.2-4.7-11.5-10.9-11.7c-0.3,0-0.7,0-1,0L420.3,541.8z"/>
				<path id="Fill_55" class="st0" d="M453.1,570.6h6.1v-34.3h-6.1V570.6z"/>
				<path id="Fill_56" class="st0" d="M486.5,570.6h-6.2l15.2-34.5h5.6l15.2,34.5h-6.4l-3.5-8.3h-16.3L486.5,570.6L486.5,570.6z
					 M498.2,543.2l-5.9,13.7h11.9L498.2,543.2z"/>
				<path id="Fill_57" class="st0" d="M528.1,570.6H522v-34.3h15.4c3.6-0.2,7.2,1,10,3.4c1.9,2,2.9,4.6,2.9,7.4v0.1
					c0.1,5-3.3,9.4-8.2,10.4l9.3,13h-7.1l-8.5-12h-7.6V570.6L528.1,570.6z M528.1,541.8v11.5h8.9c4.3,0,7.1-2.2,7.1-5.7v-0.1
					c0-3.6-2.6-5.7-7.2-5.7H528.1z"/>
				<path id="Fill_58" class="st0" d="M562,570.6h-6.2L571,536h5.6l15.2,34.5h-6.4l-3.5-8.3h-16.3L562,570.6L562,570.6z
					 M573.7,543.2l-5.9,13.7h11.9L573.7,543.2z"/>
				<path id="Fill_59" class="st0" d="M613.6,570.6h-16v-34.3h15.5c3.3-0.2,6.5,0.9,9,3c1.5,1.5,2.4,3.5,2.3,5.7v0.1
					c0.1,3.3-1.9,6.3-4.9,7.6c4,0.7,6.9,4.3,6.9,8.3v0.1C626.3,567,621.6,570.6,613.6,570.6z M603.5,555.8v9.4h10.1
					c4.2,0,6.7-1.7,6.7-4.7v-0.1c0-3-2.5-4.6-7.1-4.6L603.5,555.8z M603.5,541.6v9.1h8.3c4.1,0,6.5-1.7,6.5-4.7V546
					c0-2.7-2.3-4.4-6.1-4.4L603.5,541.6z"/>
				<path id="Fill_60" class="st0" d="M633.8,570.6h6.1v-34.3h-6.1V570.6z"/>
				<path id="Fill_61" class="st0" d="M651.9,570.6h-6.2l15.2-34.5h5.6l15.2,34.5h-6.4l-3.5-8.3h-16.3L651.9,570.6L651.9,570.6z
					 M663.6,543.2l-5.9,13.7h11.9L663.6,543.2z"/>
				<path id="Fill_62" class="st3" d="M205.7,207.8l9.8,9.3l-9.4,9.7l-9.8-9.3L205.7,207.8z"/>
				<path id="Fill_63" class="st4" d="M228,217.5l9.8,9.3l9.4-9.7l-9.8-9.3L228,217.5z"/>
				<path id="Fill_64" class="st5" d="M214.2,229.7l7.6,7.2l7.3-7.5l-7.6-7.2L214.2,229.7z"/>
				<path id="Fill_65" class="st6" d="M242.1,233.8l7.6,7.3l7.3-7.5l-7.6-7.3L242.1,233.8z"/>
				<path id="Fill_66" class="st5" d="M201.8,241.2l7.6,7.3l7.3-7.5l-7.6-7.3L201.8,241.2z"/>
				<path id="Fill_67" class="st7" d="M227.3,242.1l7.6,7.3l7.3-7.5l-7.6-7.3L227.3,242.1z"/>
				<path id="Fill_68" class="st6" d="M217.3,250.8l5.3,5.1l5.1-5.3l-5.3-5.1L217.3,250.8z"/>
				<path id="Fill_69" class="st8" d="M237.5,254.8l5.3,5.1l5.1-5.3l-5.3-5.1L237.5,254.8z"/>
				<path id="Fill_70" class="st9" d="M281.5,214.4l3,16.5l16.6-3l-3-16.5L281.5,214.4z"/>
				<path id="Fill_71" class="st10" d="M259.9,221.3l2.4,13.2l13.3-2.4l-2.4-13.2L259.9,221.3z"/>
				<path id="Fill_72" class="st7" d="M285.6,239.7l2.4,13.2l13.3-2.4l-2.4-13.2L285.6,239.7z"/>
				<path id="Fill_73" class="st5" d="M267.3,241.6l1.9,10.3l10.4-1.9l-1.9-10.3L267.3,241.6z"/>
				<path id="Fill_74" class="st4" d="M287.4,261.2l1.9,10.3l10.4-1.9l-1.9-10.3L287.4,261.2z"/>
				<path id="Fill_75" class="st7" d="M251.7,245.8l1.9,10.3l10.4-1.9l-1.9-10.3L251.7,245.8z"/>
				<path id="Fill_76" class="st6" d="M270.5,259.3l1.9,10.3l10.4-1.9l-1.9-10.3L270.5,259.3z"/>
				<path id="Fill_77" class="st4" d="M257.3,260.5l1.3,7.2l7.3-1.3l-1.3-7.2L257.3,260.5z"/>
				<path id="Fill_78" class="st8" d="M271.3,275.5l1.3,7.2l7.3-1.3l-1.3-7.2L271.3,275.5z"/>
				<path id="Fill_79" class="st3" d="M330.8,268.3l-7.2,15.1l15.2,7.2l7.2-15.1L330.8,268.3z"/>
				<path id="Fill_80" class="st7" d="M309.2,261.3l-5.8,12.1l12.2,5.8l5.8-12.1L309.2,261.3z"/>
				<path id="Fill_81" class="st6" d="M319.2,291.2l-5.8,12.1l12.2,5.8l5.8-12.1L319.2,291.2z"/>
				<path id="Fill_82" class="st5" d="M303.2,282.1l-4.5,9.4l9.5,4.5l4.5-9.4L303.2,282.1z"/>
				<path id="Fill_83" class="st5" d="M308,309.6l-4.5,9.4l9.5,4.5l4.5-9.4L308,309.6z"/>
				<path id="Fill_84" class="st9" d="M288.1,276.5l-4.5,9.4l9.5,4.5l4.5-9.4L288.1,276.5z"/>
				<path id="Fill_85" class="st4" d="M295.5,298.3l-4.5,9.4l9.5,4.5l4.5-9.4L295.5,298.3z"/>
				<path id="Fill_86" class="st6" d="M284,291.7l-3.2,6.6l6.7,3.2l3.2-6.6L284,291.7z"/>
				<path id="Fill_87" class="st7" d="M286.6,311.9l-3.2,6.6l6.7,3.2l3.2-6.6L286.6,311.9z"/>
				<path id="Fill_88" class="st9" d="M339,340.7l-14.8,8l8.1,14.7l14.8-8L339,340.7z"/>
				<path id="Fill_89" class="st7" d="M325.6,322.5l-11.9,6.5l6.5,11.8l11.8-6.5L325.6,322.5z"/>
				<path id="Fill_90" class="st7" d="M316.1,352.5l-11.9,6.5l6.5,11.8l11.8-6.5L316.1,352.5z"/>
				<path id="Fill_91" class="st3" d="M308.5,335.8l-9.2,5l5.1,9.2l9.2-5L308.5,335.8z"/>
				<path id="Fill_92" class="st8" d="M296.2,360.9l-9.2,5l5.1,9.2l9.2-5L296.2,360.9z"/>
				<path id="Fill_93" class="st10" d="M299.6,322.5l-9.2,5l5.1,9.2l9.2-5L299.6,322.5z"/>
				<path id="Fill_94" class="st5" d="M292.7,344.5l-9.2,5l5.1,9.2l9.2-5L292.7,344.5z"/>
				<path id="Fill_95" class="st4" d="M287.3,332.4l-6.5,3.5l3.6,6.5l6.5-3.5L287.3,332.4z"/>
				<path id="Fill_96" class="st7" d="M277.4,350.3l-6.5,3.5l3.6,6.4l6.5-3.5L277.4,350.3z"/>
				<path id="Fill_97" class="st6" d="M303,404.1l-16.7-2.1l-2.1,16.6l16.7,2.1L303,404.1z"/>
				<path id="Fill_98" class="st10" d="M302.9,381.6l-13.4-1.7l-1.7,13.3l13.4,1.7L302.9,381.6z"/>
				<path id="Fill_99" class="st7" d="M277.5,400.4l-13.4-1.7l-1.7,13.3l13.4,1.7L277.5,400.4z"/>
				<path id="Fill_100" class="st6" d="M281.1,382.4l-10.4-1.3l-1.3,10.4l10.4,1.3L281.1,382.4z"/>
				<path id="Fill_101" class="st4" d="M256.3,395.7l-10.4-1.3l-1.3,10.4L255,406L256.3,395.7z"/>
				<path id="Fill_102" class="st4" d="M281.8,366.5l-10.5-1.3l-1.3,10.4l10.4,1.3L281.8,366.5z"/>
				<path id="Fill_103" class="st6" d="M263.2,380.3l-10.5-1.3l-1.3,10.4l10.4,1.3L263.2,380.3z"/>
				<path id="Fill_104" class="st4" d="M266,367.4l-7.3-0.9l-0.9,7.3l7.3,0.9L266,367.4z"/>
				<path id="Fill_105" class="st4" d="M247.4,376.2l-7.3-0.9l-0.9,7.3l7.3,0.9L247.4,376.2z"/>
				<path id="Fill_106" class="st5" d="M236.4,434.6l-12.4-11.4l-11.5,12.3l12.4,11.4L236.4,434.6z"/>
				<path id="Fill_107" class="st6" d="M234.2,200.3l-12.4-11.4l-11.5,12.3l12.4,11.4L234.2,200.3z"/>
				<path id="Fill_108" class="st7" d="M249.6,416.3l-9.9-9.1l-9.2,9.8l9.9,9.1L249.6,416.3z"/>
				<path id="Fill_109" class="st6" d="M217.9,416.8l-9.9-9.1l-9.2,9.8l9.9,9.1L217.9,416.8z"/>
				<path id="Fill_110" class="st9" d="M231.5,404.4l-7.7-7.1l-7.2,7.7l7.7,7.1L231.5,404.4z"/>
				<path id="Fill_111" class="st5" d="M203.6,400.7l-7.7-7.1l-7.2,7.7l7.7,7.1L203.6,400.7z"/>
				<path id="Fill_112" class="st5" d="M241.4,391.8l-7.7-7.1l-7.2,7.7l7.7,7.1L241.4,391.8z"/>
				<path id="Fill_113" class="st4" d="M218.2,392.2l-7.7-7.1l-7.2,7.7l7.7,7.1L218.2,392.2z"/>
				<path id="Fill_114" class="st10" d="M228,383.4l-5.4-5l-5,5.4l5.4,5L228,383.4z"/>
				<path id="Fill_115" class="st4" d="M207.8,379.7l-5.4-5l-5,5.4l5.4,5L207.8,379.7z"/>
				<path id="Fill_116" class="st9" d="M164.5,420.7l-3.3-16.4l-16.5,3.3l3.3,16.4L164.5,420.7z"/>
				<path id="Fill_117" class="st7" d="M186,413.5l-2.7-13.2l-13.3,2.6l2.7,13.2L186,413.5z"/>
				<path id="Fill_118" class="st6" d="M160,395.5l-2.7-13.2l-13.3,2.6l2.7,13.2L160,395.5z"/>
				<path id="Fill_119" class="st5" d="M178.3,393.3l-2.1-10.2l-10.3,2l2.1,10.2L178.3,393.3z"/>
				<path id="Fill_120" class="st3" d="M193.7,388.9l-2.1-10.2l-10.3,2l2.1,10.3L193.7,388.9z"/>
				<path id="Fill_121" class="st9" d="M174.7,375.7l-2.1-10.2l-10.3,2.1l2.1,10.2L174.7,375.7z"/>
				<path id="Fill_122" class="st6" d="M187.9,374.2l-1.4-7.2l-7.3,1.4l1.4,7.2L187.9,374.2z"/>
				<path id="Fill_123" class="st4" d="M173.6,359.5l-1.4-7.2l-7.3,1.4l1.4,7.2L173.6,359.5z"/>
				<path id="Fill_124" class="st7" d="M114.3,367.6l7-15.2l-15.3-6.9l-7,15.2L114.3,367.6z"/>
				<path id="Fill_125" class="st5" d="M136,374.3l5.6-12.2l-12.3-5.6l-5.6,12.2L136,374.3z"/>
				<path id="Fill_126" class="st9" d="M125.5,344.6l5.6-12.2l-12.3-5.6l-5.6,12.2L125.5,344.6z"/>
				<path id="Fill_127" class="st7" d="M141.7,353.4l4.4-9.5l-9.6-4.3l-4.4,9.5L141.7,353.4z"/>
				<path id="Fill_128" class="st4" d="M154.5,377.2l4.4-9.5l-9.6-4.3l-4.4,9.5L154.5,377.2z"/>
				<path id="Fill_129" class="st3" d="M136.4,326l4.4-9.5l-9.6-4.3l-4.4,9.5L136.4,326z"/>
				<path id="Fill_130" class="st8" d="M156.8,358.8l4.4-9.5l-9.6-4.3l-4.4,9.5L156.8,358.8z"/>
				<path id="Fill_131" class="st5" d="M149.1,337.1l4.4-9.5l-9.6-4.3l-4.4,9.5L149.1,337.1z"/>
				<path id="Fill_132" class="st10" d="M160.7,343.5l3.1-6.7l-6.7-3.1l-3.1,6.7L160.7,343.5z"/>
				<path id="Fill_133" class="st6" d="M157.8,323.3l3.1-6.7l-6.7-3.1l-3.1,6.7L157.8,323.3z"/>
				<path id="Fill_134" class="st7" d="M104.9,295.4l14.6-8.3l-8.4-14.5l-14.6,8.3L104.9,295.4z"/>
				<path id="Fill_135" class="st6" d="M118.6,313.4l11.7-6.6l-6.7-11.7l-11.7,6.7L118.6,313.4z"/>
				<path id="Fill_136" class="st10" d="M127.6,283.3l11.7-6.6l-6.7-11.7l-11.7,6.7L127.6,283.3z"/>
				<path id="Fill_137" class="st9" d="M135.5,299.8l9.1-5.2l-5.2-9.1l-9.1,5.2L135.5,299.8z"/>
				<path id="Fill_138" class="st6" d="M147.4,274.5l9.1-5.2l-5.2-9.1l-9.1,5.2L147.4,274.5z"/>
				<path id="Fill_139" class="st7" d="M144.6,313l9.1-5.2l-5.2-9.1l-9.1,5.2L144.6,313z"/>
				<path id="Fill_140" class="st5" d="M151.2,290.9l9.1-5.2l-5.2-9.1l-9.1,5.2L151.2,290.9z"/>
				<path id="Fill_141" class="st4" d="M156.7,302.8l6.4-3.6l-3.7-6.4l-6.4,3.6L156.7,302.8z"/>
				<path id="Fill_142" class="st6" d="M166.3,284.8l6.4-3.6l-3.7-6.4l-6.4,3.6L166.3,284.8z"/>
				<path id="Fill_143" class="st6" d="M139.8,231.4l16.8,1.8l1.8-16.6l-16.8-1.8L139.8,231.4z"/>
				<path id="Fill_144" class="st4" d="M140.3,254l13.4,1.4l1.4-13.3l-13.4-1.4L140.3,254z"/>
				<path id="Fill_145" class="st7" d="M165.4,234.7l13.4,1.4l1.4-13.3l-13.4-1.4L165.4,234.7z"/>
				<path id="Fill_146" class="st5" d="M162,252.7l10.5,1.1l1.1-10.4l-10.5-1.1L162,252.7z"/>
				<path id="Fill_147" class="st9" d="M186.6,239.1l10.5,1.1l1.1-10.4l-10.5-1.1L186.6,239.1z"/>
				<path id="Fill_148" class="st7" d="M161.7,268.7l10.5,1.1l1.1-10.4l-10.5-1.1L161.7,268.7z"/>
				<path id="Fill_149" class="st6" d="M180,254.6l10.5,1.1l1.1-10.4l-10.5-1.1L180,254.6z"/>
				<path id="Fill_150" class="st10" d="M177.5,267.5l7.4,0.8l0.8-7.3l-7.4-0.8L177.5,267.5z"/>
				<path id="Fill_151" class="st4" d="M195.9,258.4l7.4,0.8l0.8-7.3l-7.4-0.8L195.9,258.4z"/>
				<path id="Fill_152" class="st11" d="M275.4,328.2c-2.1-1.2-4.4-2.2-6.7-2.9c-5.9-1.9-12.2-2.3-18.4-1.3c-2.7,0.4-5.4,1.1-8,2
					l-0.8,0.3c-1.4,0.5-2.8,1.2-4.2,1.9c-1.2,0.6-2.4,1.3-3.6,2c-2.8,1.7-5.5,3.5-8,5.5c-2.1-14.1-2.3-28.4-0.8-42.5
					c0,0,0-0.1,0.1-0.1c0,0,0,0,0,0c6.4,4,4.6,15.1,3.2,18.3c0,0.1,0.1,0.1,0.1,0.1c5.4-6.2,6.3-15,2.4-22.2c0-0.1,0-0.1,0.1-0.1
					c1.1,0.9,2,1.8,2.9,2.9c2.1,2.7,3.4,6,3.6,9.4c0.1,1.4,0.1,2.8,0,4.3c0,0.3-0.1,0.6-0.1,0.9c0,0.1,0,0.1,0.1,0.1c0,0,0,0,0,0
					c2.7-5.2,2.7-11.4,0-16.6c-1-1.8-2.2-3.4-3.6-4.9c-0.4-0.5-0.9-0.9-1.4-1.4c0,0,0,0,0-0.1s0,0,0.1,0l0,0
					c0.5,0.1,0.9,0.2,1.4,0.4c1.3,0.4,2.5,1.1,3.6,1.9c2.3,1.7,4,4,5,6.7c0.8,2,1.2,4,1.2,6.1c0,0,0,0.1,0.1,0.1s0.1,0,0.1-0.1
					c1.4-4.2,0.9-8.7-1.3-12.5c-1.3-2-3-3.6-5-4.8c-1.1-0.7-2.3-1.2-3.6-1.6c-0.6-0.2-1.1-0.3-1.7-0.4c-0.1,0-0.1-0.1,0-0.1
					c0.6-0.1,1.2-0.1,1.7-0.1c1.2,0,2.4,0.1,3.6,0.3c1.8,0.3,3.5,1,5,2c1.4,0.9,2.5,2.1,3.4,3.6c0,0.1,0.1,0,0.1,0
					c-0.2-2.6-1.5-5-3.5-6.7c-1.5-1.2-3.2-2.1-5-2.6c-1.2-0.3-2.4-0.5-3.6-0.5c-1.5,0-3.1,0.2-4.5,0.8c-0.1,0-0.1,0-0.1-0.1
					c1.1-1.6,2.7-2.7,4.6-3.2c1.2-0.4,2.4-0.5,3.6-0.4c1,0,2,0.3,2.9,0.7c0,0,0.1,0,0.1,0c0,0,0-0.1,0-0.1c-0.9-1-1.9-1.8-3-2.4
					c-1.1-0.6-2.3-1-3.6-1.2c-3.5-0.4-6.8,1.3-8.6,4.3c0,0-0.1,0-0.1,0c0,0,0,0,0,0c-0.4-0.7-0.8-1.6-1.2-2.4
					c-0.9-2.1-1.6-4.3-2-6.5c0,0,0-0.1-0.1-0.1c0,0-0.1,0-0.1,0.1c-0.4,2.2-1.1,4.4-2,6.5c-0.4,0.8-0.7,1.6-1.2,2.4c0,0-0.1,0-0.1,0
					c0,0,0,0,0,0c-2.7-4.3-8.5-5.6-12.8-2.9c-0.9,0.6-1.8,1.4-2.4,2.2c0,0,0,0.1,0,0.1s0.1,0,0.1,0l0,0c3.9-1.6,8.5-0.4,11.1,2.9
					c0,0,0,0.1,0,0.1c0,0-0.1,0-0.1,0c-5-1.8-10.6-0.4-14.2,3.5c-1.3,1.6-2.2,3.5-2.4,5.5c0,0.1,0.1,0.1,0.1,0
					c0.6-1,1.3-1.9,2.2-2.7c3.2-2.6,7.4-3.7,11.5-3.1c0.1,0,0.1,0.1,0,0.1c-5.1,0.9-9.5,4.3-11.5,9.1c-1.1,3.3-1.2,6.9-0.1,10.2
					c0,0,0,0.1,0.1,0.1s0.1,0,0.1-0.1c0-0.1,0-0.2,0-0.3c-0.1-6.9,4.5-13.1,11.2-14.9c0,0,0.1,0,0.1,0.1c0,0,0,0,0,0.1
					c-6.9,5.4-9.1,15-5.1,22.8c0,0,0,0,0.1,0c0,0,0,0,0-0.1c-1.2-6.6,1.3-13.3,6.4-17.6c0.1,0,0.1,0,0.1,0.1
					c-3.9,7.2-2.9,16,2.4,22.2c0,0.1,0.1,0,0.1-0.1c-1.3-3.2-3.1-14.3,3.2-18.3c0,0,0.1,0,0.1,0c0,0,0,0,0,0
					c1.5,14.2,1.2,28.4-0.8,42.5c-4.8-3.8-10.1-7-15.8-9.3c-0.7-0.2-1.3-0.5-1.9-0.7c-4.8-1.6-9.9-2.3-14.9-2.1
					c-5.4,0.2-10.6,1.5-15.4,3.9c-0.6,0.3-1.1,0.6-1.5,0.8c-0.1,0.1-0.1,0.1,0,0.2c0,0,0.1,0.1,0.2,0.1c0.5-0.1,0.9-0.3,1.4-0.4
					c5-1.4,10.2-1.9,15.4-1.5c5.2,0.5,10.2,1.8,14.9,4c6.4,3,12.4,6.9,17.8,11.5c-5.6,5.4-11.6,10.4-17.8,15.1
					c-0.2,0.1-0.4,0.2-0.6,0.3c-1.4-1.9-4-2.3-5.8-0.9c-0.8,0.6-1.4,1.4-1.6,2.4c-0.3,1.3,0,2.6,0.8,3.6c1.9,1.9,4.8,2.3,7.2,1
					c5.2-2.2,11.7-9,19.7-16.3c0.7-0.6,1.3-1.2,2-1.8c0.7,0.6,1.3,1.2,2,1.8c3.6,3.3,6.9,6.5,9.9,9.2c1.2,1.1,2.4,2.2,3.6,3.1
					c1.6,1.3,3.2,2.5,5,3.5c2.4,1.8,5.7,1.7,8-0.2c0.1-0.1,0.2-0.2,0.4-0.3c0.8-1,1-2.3,0.8-3.6c-0.2-0.8-0.6-1.5-1.2-2
					c-0.5-0.5-1.2-0.9-1.9-1.1c-1.6-0.4-3.3,0.3-4.3,1.6c-0.6-0.3-1.2-0.7-1.7-1.1c-1.7-1.2-3.4-2.6-5-4c-1.1-1-2.3-2.1-3.6-3.2
					c-2.5-2.2-5.2-4.7-8-7.2c2.6-2.1,5.3-4.2,8-6c1.2-0.8,2.4-1.5,3.6-2.3c1.6-1,3.3-1.8,5-2.7c2.6-1.2,5.2-2.2,8-3
					c6-1.7,12.2-2.1,18.4-1.1c2.2,0.4,4.4,0.9,6.6,1.5c0.1,0,0.2,0,0.2-0.1C275.5,328.3,275.5,328.2,275.4,328.2"/>
			</g>
		</g>
	</g>
</g>
</svg>
